<svg preserveAspectRatio="none" width="100%" height="100%" overflow="visible" style="display: block;" viewBox="0 0 15.75 15" fill="none" xmlns="http://www.w3.org/2000/svg">
<g id="Container">
<path id="Icon" d="M12 15H3.75V5.25L9 0L9.9375 0.9375C10.025 1.025 10.0969 1.14375 10.1531 1.29375C10.2094 1.44375 10.2375 1.5875 10.2375 1.725V1.9875L9.4125 5.25H14.25C14.65 5.25 15 5.4 15.3 5.7C15.6 6 15.75 6.35 15.75 6.75V8.25C15.75 8.3375 15.7375 8.43125 15.7125 8.53125C15.6875 8.63125 15.6625 8.725 15.6375 8.8125L13.3875 14.1C13.275 14.35 13.0875 14.5625 12.825 14.7375C12.5625 14.9125 12.2875 15 12 15V15M5.25 13.5H12V13.5V13.5L14.25 8.25V6.75V6.75V6.75H7.5L8.5125 2.625L5.25 5.8875V13.5V13.5M5.25 5.8875V5.8875V6.75V6.75V6.75V6.75V8.25V13.5V13.5V13.5V13.5V5.8875V5.8875M3.75 5.25V6.75H1.5V13.5H3.75V15H0V5.25H3.75V5.25" fill="var(--fill-0, #727784)"/>
</g>
</svg>
