<svg preserveAspectRatio="none" width="100%" height="100%" overflow="visible" style="display: block;" viewBox="0 0 42 42" fill="none" xmlns="http://www.w3.org/2000/svg">
<g id="Overlay">
<rect width="42" height="42" rx="12" fill="var(--fill-0, #006E25)" fill-opacity="0.1"/>
<path id="Icon" d="M21 27C21.35 27 21.6458 26.8792 21.8875 26.6375C22.1292 26.3958 22.25 26.1 22.25 25.75C22.25 25.4 22.1292 25.1042 21.8875 24.8625C21.6458 24.6208 21.35 24.5 21 24.5C20.65 24.5 20.3542 24.6208 20.1125 24.8625C19.8708 25.1042 19.75 25.4 19.75 25.75C19.75 26.1 19.8708 26.3958 20.1125 26.6375C20.3542 26.8792 20.65 27 21 27V27M20.1 23.15H21.95C21.95 22.55 22.0167 22.1083 22.15 21.825C22.2833 21.5417 22.5667 21.1833 23 20.75C23.5833 20.1667 23.9958 19.6792 24.2375 19.2875C24.4792 18.8958 24.6 18.45 24.6 17.95C24.6 17.0667 24.3 16.3542 23.7 15.8125C23.1 15.2708 22.2917 15 21.275 15C20.3583 15 19.5792 15.225 18.9375 15.675C18.2958 16.125 17.85 16.75 17.6 17.55L19.25 18.2C19.3667 17.75 19.6 17.3875 19.95 17.1125C20.3 16.8375 20.7083 16.7 21.175 16.7C21.625 16.7 22 16.8208 22.3 17.0625C22.6 17.3042 22.75 17.625 22.75 18.025C22.75 18.3083 22.6583 18.6083 22.475 18.925C22.2917 19.2417 21.9833 19.5917 21.55 19.975C21 20.4583 20.6208 20.9208 20.4125 21.3625C20.2042 21.8042 20.1 22.4 20.1 23.15V23.15M14 30C13.45 30 12.9792 29.8042 12.5875 29.4125C12.1958 29.0208 12 28.55 12 28V14C12 13.45 12.1958 12.9792 12.5875 12.5875C12.9792 12.1958 13.45 12 14 12H28C28.55 12 29.0208 12.1958 29.4125 12.5875C29.8042 12.9792 30 13.45 30 14V28C30 28.55 29.8042 29.0208 29.4125 29.4125C29.0208 29.8042 28.55 30 28 30H14V30M14 28H28V28V28V14V14V14H14V14V14V28V28V28V28M14 14V14V14V14V28V28V28V28V28V28V14V14V14V14" fill="var(--fill-0, #006E25)"/>
</g>
</svg>
